<?xml version="1.0" standalone="no"?>
<!DOCTYPE svg PUBLIC "-//W3C//DTD SVG 20010904//EN"
 "http://www.w3.org/TR/2001/REC-SVG-20010904/DTD/svg10.dtd">
<svg version="1.0" xmlns="http://www.w3.org/2000/svg"
 width="1461.000000pt" height="171.000000pt" viewBox="0 0 1461.000000 171.000000"
 preserveAspectRatio="xMidYMid meet">

<g transform="translate(0.000000,171.000000) scale(0.100000,-0.100000)"
fill="#000000" stroke="none">
<path d="M14280 1015 l0 -575 105 0 105 0 0 575 0 575 -105 0 -105 0 0 -575z"/>
<path d="M10310 1542 c-79 -27 -110 -44 -158 -93 -53 -55 -83 -132 -85 -220
-1 -56 4 -77 31 -132 57 -116 164 -176 367 -207 141 -21 198 -53 211 -116 13
-67 -66 -114 -193 -114 -119 0 -182 39 -204 123 l-11 45 -82 7 c-121 10 -122
10 -118 -55 8 -114 69 -214 173 -280 164 -106 480 -69 584 67 116 152 69 369
-100 468 -60 35 -118 54 -223 71 -115 18 -165 37 -197 76 -49 58 -20 125 64
148 46 13 156 13 201 0 46 -13 100 -69 109 -112 l7 -33 103 -3 104 -3 -6 44
c-21 148 -89 242 -225 305 -50 23 -71 27 -177 29 -95 2 -132 -1 -175 -15z"/>
<path d="M130 980 l0 -540 118 0 117 0 -3 169 -3 169 168 4 c198 6 254 21 327
93 176 171 139 483 -72 598 -69 37 -151 47 -419 47 l-233 0 0 -540z m558 292
c38 -22 62 -71 62 -130 0 -46 -4 -57 -34 -90 l-34 -37 -159 0 -158 0 -3 124
c-1 69 0 131 3 139 4 12 32 13 153 10 94 -2 155 -8 170 -16z"/>
<path d="M11700 975 l0 -535 104 0 104 0 4 238 c4 258 8 280 64 335 43 43 83
61 139 61 69 0 135 -38 172 -102 l28 -47 3 -242 4 -243 94 0 94 0 0 253 c0
195 -4 266 -15 312 -32 123 -98 205 -204 253 -108 50 -274 28 -342 -44 -12
-13 -26 -24 -31 -24 -4 0 -8 72 -8 160 l0 160 -105 0 -105 0 0 -535z"/>
<path d="M1470 1300 c-78 -10 -134 -41 -164 -92 l-26 -43 0 63 0 62 -105 0
-105 0 0 -425 0 -425 105 0 105 0 0 203 c0 236 7 270 73 339 47 49 101 78 158
85 l39 6 0 118 c0 89 -3 119 -12 118 -7 -1 -38 -5 -68 -9z"/>
<path d="M3753 1299 c-34 -4 -75 -15 -91 -23 -32 -16 -82 -71 -82 -88 0 -6 -3
-8 -7 -4 -4 3 -6 29 -4 56 l2 50 -110 0 -111 0 0 -425 0 -425 110 0 110 0 0
215 c0 240 3 255 66 325 43 48 98 78 157 88 l42 8 0 113 c0 68 -4 115 -10 116
-5 1 -38 -1 -72 -6z"/>
<path d="M8918 1299 c-32 -4 -71 -15 -87 -23 -30 -16 -81 -70 -81 -87 0 -5 -4
-9 -10 -9 -5 0 -10 25 -10 55 l0 55 -105 0 -105 0 0 -425 0 -425 104 0 104 0
4 218 c4 240 5 245 76 324 40 45 121 88 165 88 l27 0 0 120 c0 90 -3 120 -12
119 -7 -1 -39 -5 -70 -10z"/>
<path d="M9275 1297 c-123 -41 -183 -113 -193 -232 -3 -48 0 -71 18 -113 42
-97 122 -145 298 -177 66 -12 98 -23 117 -40 30 -29 31 -36 6 -66 -17 -21 -29
-24 -105 -28 -83 -3 -86 -2 -115 26 -16 17 -33 46 -36 66 l-7 37 -90 0 -91 0
5 -63 c9 -103 66 -185 168 -238 40 -21 59 -24 160 -24 99 0 122 3 165 23 102
47 144 113 145 226 0 143 -87 236 -251 266 -159 30 -204 54 -197 102 4 32 49
50 122 51 91 1 146 -34 146 -92 0 -20 6 -21 91 -21 l91 0 -4 53 c-8 101 -71
187 -167 230 -57 26 -215 34 -276 14z"/>
<path d="M1875 1270 c-185 -61 -308 -269 -276 -466 23 -146 101 -259 223 -325
60 -33 67 -34 168 -34 98 0 109 3 165 32 67 34 152 118 184 181 66 129 66 285
0 414 -35 69 -122 152 -190 183 -83 37 -190 43 -274 15z m205 -215 c64 -33
110 -112 110 -190 0 -83 -46 -157 -122 -196 -101 -52 -234 16 -268 137 -31
109 39 239 143 264 38 10 102 3 137 -15z"/>
<path d="M2739 1271 c-75 -24 -141 -73 -195 -144 -144 -192 -96 -492 99 -620
80 -52 114 -62 207 -62 87 0 146 20 179 59 20 24 31 10 31 -38 0 -76 -26 -139
-74 -184 -67 -61 -142 -74 -217 -36 -34 17 -87 78 -95 109 -6 25 -8 25 -110
25 l-103 0 5 -32 c3 -18 21 -65 40 -104 98 -206 335 -290 527 -186 69 37 160
138 189 209 23 58 23 61 26 541 l3 482 -101 0 -100 0 0 -42 0 -42 -28 27 c-59
56 -176 72 -283 38z m226 -229 c22 -15 50 -46 63 -67 19 -34 22 -52 20 -117
-3 -66 -7 -82 -33 -119 -90 -127 -263 -110 -336 33 -54 107 8 263 120 299 46
15 122 2 166 -29z"/>
<path d="M4155 1272 c-237 -82 -344 -372 -224 -610 37 -74 120 -155 196 -189
46 -21 73 -27 138 -27 94 -1 140 13 183 55 l32 31 0 -46 0 -46 110 0 110 0 0
425 0 425 -110 0 -110 0 0 -42 0 -41 -22 21 c-65 60 -199 80 -303 44z m176
-199 c21 -4 51 -24 80 -53 186 -186 -67 -489 -261 -314 -109 99 -88 283 39
351 45 24 83 28 142 16z"/>
<path d="M4800 865 l0 -425 104 0 104 0 4 253 3 252 29 49 c72 123 248 110
310 -23 19 -42 21 -66 24 -288 l3 -243 100 0 99 0 0 231 c0 140 4 248 11 276
17 66 71 119 131 128 93 14 153 -17 194 -102 l29 -58 3 -237 4 -238 94 0 95 0
-3 288 c-3 265 -5 291 -25 339 -60 148 -194 231 -357 221 -87 -6 -145 -31
-212 -91 l-51 -46 -39 40 c-104 107 -281 131 -394 53 l-50 -34 0 40 0 40 -105
0 -105 0 0 -425z"/>
<path d="M6240 865 l0 -425 105 0 105 0 0 218 c0 248 11 316 56 364 75 80 192
77 261 -6 48 -59 53 -92 53 -345 l0 -231 99 0 100 0 3 248 c3 242 4 249 28
297 34 68 92 99 168 91 67 -6 111 -38 143 -103 23 -46 24 -59 27 -290 l3 -243
100 0 99 0 0 233 c0 127 -5 261 -11 297 -21 131 -93 236 -198 287 -50 25 -67
28 -156 28 -116 0 -157 -16 -240 -89 l-50 -44 -50 48 c-62 57 -142 90 -224 90
-71 0 -115 -14 -163 -51 -20 -16 -39 -29 -42 -29 -3 0 -6 18 -6 40 l0 40 -105
0 -105 0 0 -425z"/>
<path d="M7950 1275 c-110 -31 -203 -114 -257 -231 -26 -54 -28 -69 -28 -179
0 -114 2 -123 32 -187 42 -90 110 -160 192 -201 61 -30 73 -32 166 -32 107 0
141 9 211 57 43 28 124 122 124 142 0 6 -42 25 -92 42 l-93 30 -43 -30 c-38
-27 -53 -31 -106 -31 -52 0 -70 5 -105 28 -37 25 -81 78 -81 100 0 4 131 7
290 7 l290 0 0 68 c-1 128 -40 227 -124 313 -98 100 -244 140 -376 104z m191
-221 c32 -16 89 -80 89 -99 0 -13 -29 -15 -180 -15 -99 0 -180 3 -180 6 0 17
45 76 72 95 55 40 137 45 199 13z"/>
<path d="M11277 1280 c-139 -35 -256 -155 -293 -302 -22 -85 -15 -215 15 -283
96 -217 327 -312 525 -216 112 55 111 51 29 133 l-72 72 -36 -17 c-113 -54
-262 32 -280 161 -12 89 24 171 96 219 54 35 147 40 194 9 l29 -19 68 74 68
74 -32 28 c-67 57 -220 90 -311 67z"/>
<path d="M12882 1274 c-78 -21 -111 -41 -178 -109 -166 -169 -161 -451 11
-614 200 -189 503 -125 620 132 86 188 20 431 -149 542 -90 60 -200 78 -304
49z m173 -213 c128 -59 165 -232 73 -337 -95 -108 -242 -96 -315 26 -39 64
-44 139 -14 206 20 44 91 110 125 117 48 10 93 5 131 -12z"/>
<path d="M13727 1279 c-109 -26 -213 -113 -269 -226 -32 -65 -33 -72 -33 -188
0 -114 2 -123 32 -187 42 -90 110 -160 192 -201 60 -29 74 -32 161 -32 87 0
101 3 161 32 254 125 316 468 124 681 -96 107 -235 152 -368 121z m158 -218
c82 -38 125 -106 125 -198 -1 -138 -112 -234 -243 -209 -51 10 -122 76 -141
133 -22 64 -20 109 8 168 51 109 153 152 251 106z"/>
</g>
</svg>
